<svg id="Layer_1" data-name="Layer 1" xmlns="http://www.w3.org/2000/svg" viewBox="0 0 285 285"><defs><style>.cls-1{fill:#b6a1ce;}.cls-2{fill:#424242;}.cls-3{fill:#565656;}.cls-4{fill:#c9c9c9;}.cls-5{fill:#adadad;}.cls-6,.cls-7{fill:none;stroke-miterlimit:10;stroke-width:3px;}.cls-6{stroke:#8e8e8e;}.cls-7{stroke:#adadad;}</style></defs><title>Artboard 5</title><rect class="cls-1" width="285" height="285"/><path class="cls-2" d="M222,82.93l11.65,32L247,161.7S286.5,70.09,281.5,66.29,222,82.93,222,82.93Z"/><path class="cls-3" d="M63,83,51.36,115,38,161.81S-1.5,70.17,3.5,66.36,63,83,63,83Z"/><path class="cls-3" d="M247,252.05c-3.92,7.68-10.72-6.17-16.24-14.62-18.18-27.8-21.93,30.44-33.78,12.67-12.34-18.51-23.17,1.15-30.14,8.37-18.58,19.24-31.47-10.35-34.16-14.87-12-20.13-12.67-7.14-39.95,13.32-12.91,9.68-21.16-14.67-26-20.14-14.61-16.56-25.65,33.13-30.53,8.12-7.07-36.34-.31-219.23,104.3-219.23C251.55,25.67,263.89,218.92,247,252.05Z"/><path class="cls-2" d="M247,252.05c-3.92,7.68-10.72-6.17-16.24-14.62-18.18-27.8-21.93,30.44-33.78,12.67-12.34-18.51-23.17,1.15-30.14,8.37-9.33,9.67-17.23,7-23.12,1.39V25.73C251.79,29.46,263.72,219.29,247,252.05Z"/><path class="cls-4" d="M224.75,138.8c0,42.28-36.21,76.55-80.87,76.55S63,181.08,63,138.8a73,73,0,0,1,8.49-34.24,76.46,76.46,0,0,0,144.7,0A72.89,72.89,0,0,1,224.75,138.8Z"/><path class="cls-5" d="M224.75,138.8c0,42.12-36.09,76.3-80.71,76.55V156.29a77,77,0,0,0,72.15-51.72A72.71,72.71,0,0,1,224.75,138.8Z"/><line class="cls-6" x1="184.15" y1="144.71" x2="184.15" y2="205.12"/><line class="cls-6" x1="204.29" y1="126.52" x2="204.29" y2="189.53"/><line class="cls-7" x1="83.15" y1="126.36" x2="83.15" y2="188.55"/><line class="cls-7" x1="103.28" y1="144.71" x2="103.28" y2="205.12"/><line class="cls-6" x1="164.02" y1="153.31" x2="164.02" y2="212.75"/><line class="cls-6" x1="143.88" y1="156.4" x2="143.88" y2="215.51"/><line class="cls-7" x1="123.42" y1="153.48" x2="123.42" y2="212.91"/><ellipse cx="164.83" cy="116.61" rx="12.02" ry="16.56"/><ellipse cx="121.34" cy="116.78" rx="12.02" ry="16.56"/><path d="M144.71,124.29,186.5,77.7s-2.8-1.85-12.61-7.76C173.84,69.94,144.12,124.78,144.71,124.29Z"/><path d="M141.5,124.47,99.72,77.86s2.8-1.85,12.6-7.75C112.32,70.11,142.05,124.94,141.5,124.47Z"/></svg>
