<svg id="Layer_1" data-name="Layer 1" xmlns="http://www.w3.org/2000/svg" viewBox="0 0 1250 1250"><defs><style>.cls-1{fill:#b6a1ce;}.cls-2{fill:#282828;}.cls-3{fill:#565656;}.cls-4{fill:#424242;}.cls-5{fill:#c9c9c9;}.cls-6{fill:#adadad;}.cls-7,.cls-8{fill:none;stroke-miterlimit:10;stroke-width:3px;}.cls-7{stroke:#8e8e8e;}.cls-8{stroke:#adadad;}</style></defs><title>Artboard 3</title><rect class="cls-1" width="1250" height="1250"/><path class="cls-2" d="M191,716.53H43.06c-17.75,0-28-12.75-28-28V562.47c0-17.29,11.83-28,28-28H165.48V590.9H127v69.17h23.67v-48H191Z"/><path class="cls-2" d="M374.18,716.53H302V678.07H274.7v38.46H202.34V534.47H274.7v38.68H302V534.47h72.18Z"/><path class="cls-2" d="M718.86,590.93H686.09v20.25h32.54v77.36c0,16.61-9.56,28-28,28H571.18V660.1h32.76V639.39H571.18V562.47c0-19.57,10.46-28,28-28H718.86Z"/><path class="cls-2" d="M896.8,590.93H870.18v125.6H757.09V590.93H730.24V534.47H896.8Z"/><path class="cls-2" d="M1051.07,716.53H908.18V534.47h142.89V590.9h-29.81v20h29.81v29.35h-29.81v19.8h29.81Z"/><path class="cls-2" d="M1234.92,688.31c0,18.21-9.78,28.22-28.21,28.22H1062.45V534.47h144.49c20,0,28,8.87,28,27.76Zm-72.58-23.66v-79H1135v79Z"/><path class="cls-3" d="M570.61,728.8c-3.8,7.47-10.42-6-15.79-14.21-17.68-27-21.32,29.59-32.84,12.32-12-18-22.53,1.11-29.3,8.13-18.07,18.71-30.6-10.06-33.23-14.45-11.68-19.58-12.31-7-38.84,12.95C408.06,743,400,719.28,395.35,714c-14.21-16.11-25,32.21-29.69,7.89-6.88-35.38-.31-213.16,101.37-213.16C575,508.69,587,696.59,570.61,728.8Z"/><path class="cls-4" d="M570.61,728.8c-3.8,7.47-10.42-6-15.79-14.21-17.67-27-21.32,29.59-32.84,12.32-12-18-22.53,1.11-29.3,8.13-9.08,9.4-16.76,6.82-22.49,1.36V508.75C575.27,512.37,586.87,696.91,570.61,728.8Z"/><ellipse cx="490.72" cy="597.11" rx="11.68" ry="16.11"/><path d="M471.18,604.6l40.58-45.32s-2.75-1.81-12.28-7.54C499.48,551.74,470.58,605.05,471.18,604.6Z"/><ellipse cx="448.43" cy="597.27" rx="11.68" ry="16.11"/><path d="M468,604.75l-40.58-45.28s2.72-1.81,12.25-7.55C439.66,551.89,468.57,605.21,468,604.75Z"/><path class="cls-5" d="M549,618.69c0,41.1-35.2,74.43-78.63,74.43s-78.63-33.33-78.63-74.43a71.07,71.07,0,0,1,8.28-33.3,74.34,74.34,0,0,0,140.69,0A70.85,70.85,0,0,1,549,618.69Z"/><path class="cls-6" d="M549,618.69c0,40.95-35.09,74.18-78.47,74.42V635.69a74.87,74.87,0,0,0,70.15-50.3A70.61,70.61,0,0,1,549,618.69Z"/><line class="cls-7" x1="509.51" y1="624.43" x2="509.51" y2="683.17"/><line class="cls-7" x1="529.09" y1="606.75" x2="529.09" y2="668.01"/><line class="cls-8" x1="411.29" y1="606.59" x2="411.29" y2="667.06"/><line class="cls-8" x1="430.87" y1="624.43" x2="430.87" y2="683.17"/><line class="cls-7" x1="489.93" y1="632.8" x2="489.93" y2="690.59"/><line class="cls-7" x1="470.35" y1="635.8" x2="470.35" y2="693.27"/><line class="cls-8" x1="450.45" y1="632.96" x2="450.45" y2="690.75"/></svg>
