<svg id="Layer_1" data-name="Layer 1" xmlns="http://www.w3.org/2000/svg" viewBox="0 0 1125 2436"><defs><style>.cls-1{fill:none;stroke:#e6a926;stroke-miterlimit:10;stroke-width:10px;}.cls-2{fill:#0c0c0c;}</style></defs><title>splash_mobile</title><rect class="cls-1" x="-2.46" y="541.34" width="1130" height="749.32" transform="translate(1478.54 353.46) rotate(90)"/><path class="cls-2" d="M144.2,484.7h40.27c27.34,0,40.76,13.55,40.76,38.43v15.33c0,24.88-13.42,38.43-40.76,38.43H171.54V640.2H144.2Zm40.27,70c8.7,0,13.42-3.55,13.42-14.66V521.57c0-11.1-4.72-14.66-13.42-14.66H171.54v47.76Z"/><path class="cls-2" d="M238.15,603.32V521.57c0-24.88,14.67-39.09,41.51-39.09s41.51,14.21,41.51,39.09v81.75c0,24.88-14.66,39.1-41.51,39.1S238.15,628.2,238.15,603.32Zm55.68,1.56V520c0-11.11-5.47-15.33-14.17-15.33s-14.17,4.22-14.17,15.33v84.86c0,11.1,5.47,15.32,14.17,15.32S293.83,616,293.83,604.88Z"/><path class="cls-2" d="M339.56,484.7h40.52c28.34,0,40.51,11.77,40.51,35.76V530c0,16-5.71,26.21-17.89,30.65v.44c13.67,3.78,18.14,15.33,18.14,32.88v27.32c0,7.56.25,13.11,3,18.89H396c-1.49-4-2.49-6.45-2.49-19.11V592.66c0-14.44-4.72-19.11-17.15-19.11H366.9V640.2H339.56Zm37.29,66.64c10.19,0,16.4-4,16.4-16.44v-12c0-11.11-4.22-16-13.92-16H366.9v44.43Z"/><path class="cls-2" d="M460.61,506.91H432V484.7h84.51v22.21H488V640.2H460.61Z"/><path class="cls-2" d="M507.59,551.34h54.68v22.21H507.59Z"/><path class="cls-2" d="M711,1183.7h72.34v22.21h-45v43.32h35.29v22.21H738.32v67.76H711Z"/><path class="cls-2" d="M794.49,1302.32v-81.74c0-24.89,14.66-39.1,41.51-39.1s41.51,14.21,41.51,39.1v81.74c0,24.88-14.67,39.1-41.51,39.1S794.49,1327.2,794.49,1302.32Zm55.68,1.56V1219c0-11.11-5.47-15.33-14.17-15.33s-14.17,4.22-14.17,15.33v84.86c0,11.1,5.47,15.32,14.17,15.32S850.17,1315,850.17,1303.88Z"/><path class="cls-2" d="M697.58,1437.34h54.69v22.21H697.58Z"/><path class="cls-2" d="M768.67,1370.7H796V1504h45v22.22H768.67Z"/><path class="cls-2" d="M854.17,1370.7h27.34v155.5H854.17Z"/><path class="cls-2" d="M899.9,1489.32v-81.74c0-24.88,14.67-39.1,41.51-39.1s41.51,14.22,41.51,39.1v81.74c0,24.88-14.66,39.1-41.51,39.1S899.9,1514.2,899.9,1489.32Zm55.68,1.56V1406c0-11.11-5.47-15.33-14.17-15.33s-14.16,4.22-14.16,15.33v84.86c0,11.1,5.46,15.32,14.16,15.32S955.58,1502,955.58,1490.88Z"/></svg>
