<svg id="Lag_1" data-name="Lag 1" xmlns="http://www.w3.org/2000/svg" viewBox="0 0 1080 1080"><defs><style>.cls-1{fill:#1f2532;}.cls-2{opacity:0.8;isolation:isolate;}.cls-3{fill:#11006a;}.cls-12,.cls-14,.cls-4{fill:#fff;}.cls-5{fill:#dcdcdc;}.cls-6{fill:#93cbe3;}.cls-7{fill:#bacbe3;}.cls-8{fill:#1a1a1a;}.cls-9{opacity:0.2;}.cls-10{fill:#999;}.cls-11{fill:#e6e6e6;}.cls-12,.cls-14{stroke:#e6e6e6;stroke-miterlimit:10;}.cls-13{fill:#fc9206;}.cls-14{stroke-width:0.75px;}</style></defs><title>Artboard 4</title><rect class="cls-1" y="-0.24" width="1080" height="1080"/><rect class="cls-2" width="1080" height="1080"/><path class="cls-1" d="M534.29,811.55V61h285.6c22,2.89,39.16,13.15,50.89,30.49,11.34,16.75,17.09,39.23,17.09,66.8l21,569.34c0,21.25-9.49,42.58-26,58.5a90.46,90.46,0,0,1-62.93,25.45Z"/><path d="M819.8,61.67c21.84,2.9,38.8,13,50.4,30.18,11.26,16.64,17,39,17,66.41v.05l21,569.29c0,21.08-9.43,42.21-25.84,58a89.73,89.73,0,0,1-62.44,25.26H535V61.67H819.8m.09-1.41H533.58v752H819.89c49.53,0,89.69-40.16,89.69-84.69l-21-569.31c0-54.53-23-92-68.69-98Z"/><rect class="cls-3" x="262.08" y="733.76" width="601" height="23"/><path d="M862.58,734.26v22h-600v-22h600m1-1h-602v24h602Z"/><path class="cls-4" d="M909.58,727.57c0,44.53-40.16,84.69-89.69,84.69H533.58v-752H819.89c45.69,6,68.69,43.47,68.69,98Z"/><path class="cls-1" d="M260.5,811.26a90.4,90.4,0,0,1-62.92-25.45c-16.56-15.92-26.06-37.26-26.06-58.54l21-569.28c0-27.6,5.75-50.07,17.09-66.83,11.74-17.33,28.89-27.59,51-30.5H546.1v750.6Z"/><path d="M545.39,61.38V810.55H260.5a89.73,89.73,0,0,1-62.44-25.25c-16.41-15.78-25.83-36.92-25.84-58l21-569.28V158c0-27.42,5.71-49.77,17-66.4,11.6-17.14,28.56-27.29,50.4-30.18h284.8M546.84,60H260.5c-45.69,6-68.69,43.47-68.69,98l-21,569.31C170.81,771.8,211,812,260.5,812H546.81V60Z"/><path class="cls-4" d="M171.81,727.27C171.81,771.8,212,812,261.5,812H547.81V60H261.5c-45.69,6-68.69,43.47-68.69,98Z"/><path class="cls-5" d="M901.58,518.26h-722q-2.51,60.5-5,121l732-1Q904.06,578.26,901.58,518.26Z"/><rect class="cls-6" x="453.58" y="502.26" width="87" height="138"/><rect class="cls-7" x="540.44" y="501.89" width="87" height="138"/><path class="cls-8" d="M909.83,727.26a73.65,73.65,0,0,1-5,33c-9.2,22.78-27.6,33.92-36,39a100.65,100.65,0,0,1-35,13c-301.31,8.85-522.91,8.26-575,1-12.38-1.73-42.61-5.94-64-29-15.69-16.93-20.76-37.69-22-43-3.15-13.55-1.92-21.31,0-57,1.07-19.69,1.68-35.5,2-45h732Z"/><path class="cls-1" d="M903.88,760.26c-9.2,22.78-27.6,33.92-36,39a100.65,100.65,0,0,1-35,13c-301.31,8.85-522.91,8.26-575,1-12.38-1.73-42.61-5.94-64-29-15.69-16.93-20.76-37.69-22-43-2.23-9.58-2.26-16.27-1.42-32H908.27q.3,9,.61,18A73.65,73.65,0,0,1,903.88,760.26Z"/><rect class="cls-8" x="220.58" y="733.26" width="641" height="24"/><rect class="cls-8" x="231.58" y="735.26" width="622" height="20"/><g class="cls-9"><rect class="cls-8" x="221.58" y="736.26" width="643" height="21"/></g><circle class="cls-10" cx="540.58" cy="389.26" r="156"/><circle class="cls-1" cx="542.58" cy="385.26" r="109"/><circle class="cls-8" cx="542.58" cy="386.26" r="64"/><circle class="cls-11" cx="582.58" cy="333.26" r="14"/><circle class="cls-11" cx="484.58" cy="463.26" r="7"/><rect class="cls-1" x="717.58" y="127.26" width="115" height="115" rx="7.78"/><rect class="cls-5" x="738.58" y="147.26" width="73" height="73" rx="4.69"/><rect class="cls-1" x="241.58" y="171.26" width="109" height="58" rx="15.78"/><ellipse class="cls-5" cx="297.08" cy="199.26" rx="28.5" ry="21"/><circle class="cls-12" cx="280.58" cy="389.26" r="51"/><circle class="cls-13" cx="281.08" cy="389.76" r="36"/><circle class="cls-14" cx="806" cy="376.3" r="38.46"/><circle class="cls-1" cx="806.08" cy="376.76" r="28"/><path class="cls-4" d="M867.76,1006.76l-637-2,15-262h606Q859.77,874.76,867.76,1006.76Z"/><path class="cls-13" d="M830.26,897.76l-562.5-1.17q3.51-76.92,7-153.83h547Z"/><path class="cls-1" d="M337.34,801.26c-5.22-6-9.72-6.43-11.7-6.43-2.2,0-4.92.4-6.8,3.08a9.37,9.37,0,0,0-1.77,5.63,7.29,7.29,0,0,0,1.56,5c1.68,2,4.08,2.81,8.78,5.09l5.23,2.54c3,1.48,6.79,3.49,9.51,6.84,4.07,5,5.12,11.39,5.12,16.62,0,9.24-2.51,17.28-6.17,22.11-6.16,8.3-15.15,9.11-19.75,9.11a24.18,24.18,0,0,1-13.79-3.75,47.37,47.37,0,0,1-10.25-9.84l8.37-14.74a47.14,47.14,0,0,0,6.48,6.84,13.67,13.67,0,0,0,8.77,3.21,9.59,9.59,0,0,0,7.33-3.11,10.46,10.46,0,0,0,2.5-7.2,8.83,8.83,0,0,0-2.41-6.44c-1.88-2-6.16-4-8.15-5l-5.75-2.56c-3.24-1.47-7-3.35-9.72-7.1-3.65-5-4.18-11.26-4.18-15.55,0-7.9,1.89-14.6,6.07-20.1,4.91-6.43,10.76-8.17,17.24-8.17,4.81,0,12.54,1.07,20.69,8.84Z"/><path class="cls-1" d="M383.33,796.8v72H367.26v-72H352.08V779.38h46.4V796.8Z"/><path class="cls-1" d="M443.52,851.87H417.19l-5.33,16.89H395.14l28.12-89.38H438l27.49,89.38H448.75Zm-4.39-15.81-8.57-30-8.67,30Z"/><path class="cls-1" d="M497.77,779.38c8.88,0,14.42,3.75,17.76,7.77,2.93,3.62,6.06,10,6.06,20,0,5.63-.94,12.59-5.43,18.22a21.1,21.1,0,0,1-9.72,6.83l21.42,36.56h-19.6L489.4,833.51v35.25H473.31V779.38ZM489.4,820h3.66c2.93,0,6.9-.4,9.62-3.89a13.9,13.9,0,0,0,2.58-8.71c0-5.09-1.88-7.77-3.24-9.11-2.61-2.54-6.79-2.81-8.88-2.81h-3.77Z"/><path class="cls-1" d="M559,796.8v72h-16.1v-72H527.76V779.38h46.4V796.8Z"/><path class="cls-1" d="M642.93,801.26c-5.23-6-9.72-6.43-11.71-6.43-2.19,0-4.91.4-6.79,3.08a9.31,9.31,0,0,0-1.78,5.63,7.34,7.34,0,0,0,1.57,5c1.67,2,4.08,2.81,8.78,5.09l5.26,2.46c3,1.48,6.79,3.49,9.51,6.84,4.07,5,5.12,11.39,5.12,16.62,0,9.24-2.51,17.28-6.17,22.11-6.16,8.3-15.15,9.11-19.75,9.11a24.21,24.21,0,0,1-13.8-3.75,47.56,47.56,0,0,1-10.27-9.76l8.36-14.77a47.66,47.66,0,0,0,6.48,6.84,13.75,13.75,0,0,0,8.78,3.21,9.57,9.57,0,0,0,7.32-3.08,10.45,10.45,0,0,0,2.51-7.23,8.85,8.85,0,0,0-2.41-6.44c-1.88-2-6.16-4-8.15-5L620,828.26c-3.24-1.47-7-3.35-9.72-7.1-3.65-5-4.18-11.26-4.18-15.55,0-7.9,1.88-14.6,6.06-20.1,4.92-6.43,10.77-8.17,17.25-8.17,4.8,0,12.54,1.07,20.69,8.84Z"/><path class="cls-1" d="M689,779.38c6.06,0,12.75,1.07,18.29,7.37,6,6.7,6.79,15.54,6.79,21.71,0,11.25-3.34,17.55-6,21-5.54,7.23-12.85,7.9-17.76,7.9h-9.83v31.4h-16V779.38Zm-8.47,41.14h5.71c2.2,0,6.06-.14,8.68-3.35a14.56,14.56,0,0,0,2.61-8.85,13.79,13.79,0,0,0-2.61-8.71c-2.41-3-5.86-3.35-9-3.35H680.5Z"/><path class="cls-1" d="M740.65,779.38v89.38h-16.1V779.38Z"/><path class="cls-1" d="M772.31,779.38v72H794v17.38H756.26V779.38Z"/></svg>
