<svg id="Layer_1" data-name="Layer 1" xmlns="http://www.w3.org/2000/svg" viewBox="0 0 75 75"><defs><style>.cls-1{fill:#fff;}.cls-2{fill:#c6bfb5;}</style></defs><title>cb_logo</title><rect class="cls-1" width="75" height="75"/><path class="cls-2" d="M45.35,18.38h-.64c-.29,0-1.29.09-2,.17h0a34.09,34.09,0,0,1-5.34.39,35.06,35.06,0,0,1-5.22-.37h0c-.73-.09-1.87-.17-2.2-.19H29.3a10.07,10.07,0,0,0-10,10.06v7.08a10.06,10.06,0,0,0,10,10H30l1-.08h0a33.68,33.68,0,0,1,6.34-.57,34.1,34.1,0,0,1,6.38.57h0l.88.07h.74a10.07,10.07,0,0,0,10.06-10V28.44A10.07,10.07,0,0,0,45.35,18.38Z"/><path class="cls-1" d="M50.56,32.07c-.35-.38-.63-.69-.63-1a1.85,1.85,0,0,1,.48-.93l.17-.22a5,5,0,0,0,.91-3c0-2.77-1.77-4.92-4-4.92H38.74v9.74h0a.89.89,0,0,0,1.78,0h0V23.81h7c1.08,0,2.25,1.19,2.25,3.11a3.46,3.46,0,0,1-.83,2.3,3,3,0,0,0-.73,1.86,3.18,3.18,0,0,0,1.1,2.22l.22.25a3.32,3.32,0,0,1,1,2.49,3.89,3.89,0,0,1-3.76,4h-.53A.92.92,0,1,0,46,41.87a.61.61,0,0,0,.19,0h.44a5.48,5.48,0,0,0,4-1.69A5.88,5.88,0,0,0,52.21,36,5.34,5.34,0,0,0,50.56,32.07Z"/><path class="cls-1" d="M35.83,24.69l-.07-.07a7.11,7.11,0,0,0-5.52-2.71,6.54,6.54,0,0,0-5.66,2.76A12.51,12.51,0,0,0,22.73,32a12.57,12.57,0,0,0,1.77,7.08A6.49,6.49,0,0,0,29.82,42H30a.89.89,0,0,0,.19-1.77h-.33C26.35,40,24.5,37.14,24.5,32c0-5.42,2-8.29,5.74-8.29A5.45,5.45,0,0,1,34.5,25.8l.06.07a.88.88,0,0,0,1.58-.54A.88.88,0,0,0,35.83,24.69Z"/><path class="cls-2" d="M6.5,53.33l-.24.32a1.15,1.15,0,0,0-.62-.18.93.93,0,0,0-.86.52,1.7,1.7,0,0,0-.13.74,1.13,1.13,0,0,0,.28.86,1,1,0,0,0,.73.31,1.25,1.25,0,0,0,.6-.16h.07l.23.31a1.69,1.69,0,0,1-1,.26,1.46,1.46,0,0,1-1.48-1.44v-.13A1.54,1.54,0,0,1,6.5,53.33Z"/><path class="cls-2" d="M7.93,53.13H8.4v1.26H9.79V53.13h.47v3.11H9.79V54.79H8.4v1.45H7.93Z"/><path class="cls-2" d="M12,53.13h.83a1.45,1.45,0,0,1,.89.17.87.87,0,0,1-.4,1.58h-.16a.46.46,0,0,1,.17.14c.09.12.29.35.46.58l.5.65h-.59a3.24,3.24,0,0,0-.28-.47,3.25,3.25,0,0,0-.6-.73.48.48,0,0,0-.35-.16v1.36H12Zm.47.4v1h.33a1,1,0,0,0,.64-.14.51.51,0,0,0,.17-.4.46.46,0,0,0-.33-.43,1.55,1.55,0,0,0-.43,0Z"/><path class="cls-2" d="M15.84,53.13h.47v3.11h-.47Z"/><path class="cls-2" d="M20.16,53.36l-.22.35a1.52,1.52,0,0,0-.85-.26c-.39,0-.66.17-.66.45a.39.39,0,0,0,.29.35,1.14,1.14,0,0,0,.26.09l.42.11a1.62,1.62,0,0,1,.63.31.82.82,0,0,1,.22.56.93.93,0,0,1-.51.8,1.56,1.56,0,0,1-.79.18A2.56,2.56,0,0,1,17.8,56l.2-.38a2,2,0,0,0,1,.26,1,1,0,0,0,.5-.11.49.49,0,0,0,.24-.39c0-.25-.17-.41-.6-.51l-.45-.12a.87.87,0,0,1-.75-.8c0-.54.48-.91,1.15-.91A1.94,1.94,0,0,1,20.16,53.36Z"/><path class="cls-2" d="M21.5,53.53h.92v2.71h.46V53.53h.94l.05-.4H21.5Z"/><path class="cls-2" d="M25.27,53.13h.48v3.11h-.48Z"/><path class="cls-2" d="M28.85,53.13,30,56.24H29.5l-.32-.86H27.9l-.33.86h-.48l1.16-3.11ZM28,55h1l-.5-1.42Z"/><path class="cls-2" d="M31.3,53.13h.54l1,1.69c.21.34.38.7.4.73s0-.44,0-.85V53.13h.46v3.11h-.49l-1-1.65c-.19-.32-.43-.81-.43-.81v2.46H31.3Z"/><path class="cls-2" d="M38.09,53.13h.79a2.39,2.39,0,0,1,.8.07.79.79,0,0,1,.59.71.63.63,0,0,1-.25.51.8.8,0,0,1-.36.17,1,1,0,0,1,.45.17.8.8,0,0,1,.31.62.86.86,0,0,1-.59.77,2,2,0,0,1-.85.09h-.89Zm.46.41v.89h.58c.34,0,.47,0,.57-.23a.74.74,0,0,0,0-.21.41.41,0,0,0-.36-.41,1.09,1.09,0,0,0-.36,0Zm0,1.28v1h.58a1.4,1.4,0,0,0,.5-.06.48.48,0,0,0,.27-.44.48.48,0,0,0-.39-.48,1.15,1.15,0,0,0-.37,0Z"/><path class="cls-2" d="M42,53.13h.83a1.45,1.45,0,0,1,.89.17.83.83,0,0,1,.38.7.81.81,0,0,1-.78.87.38.38,0,0,1-.15,0,.54.54,0,0,1,.16.14c.1.12.29.35.46.58l.5.65h-.59a3.24,3.24,0,0,0-.28-.47A3.66,3.66,0,0,0,42.8,55a.52.52,0,0,0-.35-.16V56.2H42Zm.48.4v1h.32a1,1,0,0,0,.64-.14.48.48,0,0,0,.17-.4.44.44,0,0,0-.33-.43,1.55,1.55,0,0,0-.43,0Z"/><path class="cls-2" d="M45.75,53.13h.48V55a2.26,2.26,0,0,0,0,.52.64.64,0,0,0,.67.37.66.66,0,0,0,.58-.21.82.82,0,0,0,.12-.55v-2h.48v2c0,.51,0,.69-.28.89a1.21,1.21,0,0,1-.91.29,1.07,1.07,0,0,1-1.07-.53,1.32,1.32,0,0,1-.11-.65Z"/><path class="cls-2" d="M49.74,53.13h.48V55a2.26,2.26,0,0,0,0,.52.64.64,0,0,0,.67.37.65.65,0,0,0,.57-.21.77.77,0,0,0,.13-.55v-2h.47v2c0,.51-.05.69-.27.89a1.21,1.21,0,0,1-.91.29,1.06,1.06,0,0,1-1.07-.53,1.13,1.13,0,0,1-.11-.65Z"/><path class="cls-2" d="M53.77,53.13h.54l1,1.69c.21.34.38.7.4.73s0-.44,0-.85V53.13h.46v3.11h-.49l-1-1.65c-.19-.32-.43-.81-.43-.81v2.46h-.48Z"/><path class="cls-2" d="M62.72,53.33l-.24.32a1.15,1.15,0,0,0-.62-.18A.93.93,0,0,0,61,54a1.7,1.7,0,0,0-.13.74,1.13,1.13,0,0,0,.28.86,1,1,0,0,0,.73.31,1.25,1.25,0,0,0,.6-.16h.07l.23.31a1.69,1.69,0,0,1-1,.26,1.46,1.46,0,0,1-1.48-1.44v-.13a1.54,1.54,0,0,1,2.38-1.38Z"/><path class="cls-2" d="M64.17,53.13h.91a1.59,1.59,0,0,1,.86.15.86.86,0,0,1,.46.77.9.9,0,0,1-.33.73,1.12,1.12,0,0,1-.86.26h-.57v1.2h-.47Zm.47.4v1.12h.54a.64.64,0,0,0,.53-.16.55.55,0,0,0,.16-.39.53.53,0,0,0-.19-.44,1,1,0,0,0-.62-.13Z"/><path class="cls-2" d="M67.94,53.13h.47v1.26H69.8V53.13h.47v3.11H69.8V54.79H68.41v1.45h-.47Z"/></svg>
