<svg id="Layer_1" data-name="Layer 1" xmlns="http://www.w3.org/2000/svg" viewBox="0 0 82 61"><defs><style>.cls-1{fill:#c6bfb5;}.cls-2{fill:#fff;}</style></defs><title>Artboard 1</title><path class="cls-1" d="M48.85,11.38h-.64c-.29,0-1.29.09-2,.17h0a35.11,35.11,0,0,1-5.34.39,35.05,35.05,0,0,1-5.22-.37h0c-.73-.09-1.87-.17-2.2-.19H32.8a10.07,10.07,0,0,0-10,10.06v7.08a10.06,10.06,0,0,0,10,10.05h.7l1-.08h0a34.12,34.12,0,0,1,6.34-.57,34.48,34.48,0,0,1,6.38.57h0l.88.07h.74a10.07,10.07,0,0,0,10.06-10V21.44A10.07,10.07,0,0,0,48.85,11.38Z"/><path class="cls-2" d="M54.06,25.07c-.35-.38-.63-.69-.63-1a1.82,1.82,0,0,1,.48-.93l.17-.22a5,5,0,0,0,.91-3C55,17.15,53.22,15,51,15H42.24v9.74h0a.89.89,0,1,0,1.78,0h0V16.81H51c1.08,0,2.25,1.19,2.25,3.11a3.46,3.46,0,0,1-.83,2.3,3,3,0,0,0-.73,1.86,3.2,3.2,0,0,0,1.1,2.22l.22.25a3.3,3.3,0,0,1,1,2.49,3.88,3.88,0,0,1-3.85,4h-.44a.92.92,0,1,0,0,1.83h.44a5.49,5.49,0,0,0,4-1.69A5.88,5.88,0,0,0,55.71,29,5.31,5.31,0,0,0,54.06,25.07Z"/><path class="cls-2" d="M39.33,17.69l-.07-.07a7.11,7.11,0,0,0-5.52-2.71,6.53,6.53,0,0,0-5.66,2.76A12.52,12.52,0,0,0,26.23,25,12.54,12.54,0,0,0,28,32.08,6.48,6.48,0,0,0,33.32,35h.16a.89.89,0,1,0,0-1.77h-.14C29.85,33,28,30.14,28,25c0-5.42,2-8.29,5.74-8.29A5.44,5.44,0,0,1,38,18.8l.06.07a.88.88,0,0,0,.69.34.89.89,0,0,0,.89-.88A.91.91,0,0,0,39.33,17.69Z"/><path class="cls-1" d="M10,46.33l-.24.32a1.15,1.15,0,0,0-.62-.18.92.92,0,0,0-.86.52,1.64,1.64,0,0,0-.13.74,1.1,1.1,0,0,0,.28.86,1,1,0,0,0,.73.31,1.22,1.22,0,0,0,.6-.16l.07,0,.23.31a1.63,1.63,0,0,1-1,.26,1.46,1.46,0,0,1-1.48-1.57A1.54,1.54,0,0,1,10,46.33Z"/><path class="cls-1" d="M11.43,46.13h.47v1.26h1.39V46.13h.47v3.11h-.47V47.79H11.9v1.45h-.47Z"/><path class="cls-1" d="M15.52,46.13h.83a1.47,1.47,0,0,1,.89.17.81.81,0,0,1,.38.7.83.83,0,0,1-.94.87.49.49,0,0,1,.17.14c.09.12.29.35.46.58l.5.65h-.59a3.19,3.19,0,0,0-.28-.47,3.31,3.31,0,0,0-.6-.73.48.48,0,0,0-.35-.16v1.36h-.47Zm.47.4v1h.33a1,1,0,0,0,.64-.14.5.5,0,0,0,.17-.4.46.46,0,0,0-.33-.43,1.58,1.58,0,0,0-.43,0Z"/><path class="cls-1" d="M19.34,46.13h.47v3.11h-.47Z"/><path class="cls-1" d="M23.66,46.36l-.22.35a1.59,1.59,0,0,0-.85-.26c-.39,0-.66.17-.66.45a.4.4,0,0,0,.29.35,1.81,1.81,0,0,0,.26.09l.42.11a1.62,1.62,0,0,1,.63.31.85.85,0,0,1,.22.56.92.92,0,0,1-.51.8,1.59,1.59,0,0,1-.79.18A2.5,2.5,0,0,1,21.3,49l.2-.38a2,2,0,0,0,1,.26.91.91,0,0,0,.5-.11.47.47,0,0,0,.24-.39c0-.25-.17-.41-.6-.51l-.45-.12a.87.87,0,0,1-.75-.8c0-.54.48-.91,1.15-.91A2,2,0,0,1,23.66,46.36Z"/><path class="cls-1" d="M25,46.53h.92v2.71h.46V46.53h.94l.05-.4H25Z"/><path class="cls-1" d="M28.77,46.13h.48v3.11h-.48Z"/><path class="cls-1" d="M32.35,46.13l1.14,3.11H33l-.32-.86H31.4l-.33.86h-.48l1.16-3.11ZM31.53,48h1s-.5-1.42-.5-1.42Z"/><path class="cls-1" d="M34.8,46.13h.54l1,1.69c.21.34.38.7.4.73s0-.44,0-.85l0-1.57h.46v3.11h-.49l-1-1.65c-.19-.32-.43-.81-.43-.81s0,.41,0,.86l0,1.6H34.8Z"/><path class="cls-1" d="M41.59,46.13h.79a2.34,2.34,0,0,1,.8.07.79.79,0,0,1,.59.71.66.66,0,0,1-.25.51.81.81,0,0,1-.36.17,1.06,1.06,0,0,1,.45.17.8.8,0,0,1,.31.62.85.85,0,0,1-.59.77,2,2,0,0,1-.85.09h-.89Zm.46.41v.89h.58c.34,0,.47,0,.57-.23a.54.54,0,0,0,0-.21.41.41,0,0,0-.36-.41.91.91,0,0,0-.36,0Zm0,1.28v1h.58a1.57,1.57,0,0,0,.5-.06.48.48,0,0,0,.27-.44.48.48,0,0,0-.39-.48,1.22,1.22,0,0,0-.37,0Z"/><path class="cls-1" d="M45.47,46.13h.83a1.45,1.45,0,0,1,.89.17.81.81,0,0,1,.38.7.83.83,0,0,1-.93.87.56.56,0,0,1,.16.14c.1.12.29.35.46.58l.5.65h-.59a3.19,3.19,0,0,0-.28-.47A3.64,3.64,0,0,0,46.3,48a.51.51,0,0,0-.35-.16v1.36h-.48Zm.48.4v1h.32a1,1,0,0,0,.64-.14.47.47,0,0,0,.17-.4.44.44,0,0,0-.33-.43,1.58,1.58,0,0,0-.43,0Z"/><path class="cls-1" d="M49.25,46.13h.48V48a2.6,2.6,0,0,0,0,.52.65.65,0,0,0,.67.37.68.68,0,0,0,.58-.21.83.83,0,0,0,.12-.55v-2h.48v2c0,.51,0,.69-.28.89a1.22,1.22,0,0,1-.91.29,1.07,1.07,0,0,1-1.07-.53,1.26,1.26,0,0,1-.11-.65Z"/><path class="cls-1" d="M53.24,46.13h.48V48a2,2,0,0,0,0,.52.64.64,0,0,0,.67.37.66.66,0,0,0,.57-.21.78.78,0,0,0,.13-.55v-2h.47v2c0,.51-.05.69-.27.89a1.22,1.22,0,0,1-.91.29,1.06,1.06,0,0,1-1.07-.53,1.16,1.16,0,0,1-.11-.65Z"/><path class="cls-1" d="M57.27,46.13h.54l1,1.69c.21.34.38.7.4.73s0-.44,0-.85l0-1.57h.46v3.11h-.49l-1-1.65c-.19-.32-.43-.81-.43-.81s0,.41,0,.86l0,1.6h-.48Z"/><path class="cls-1" d="M66.22,46.33l-.24.32a1.15,1.15,0,0,0-.62-.18.92.92,0,0,0-.86.52,1.64,1.64,0,0,0-.13.74,1.1,1.1,0,0,0,.28.86,1,1,0,0,0,.73.31,1.22,1.22,0,0,0,.6-.16l.07,0,.23.31a1.63,1.63,0,0,1-1,.26,1.46,1.46,0,0,1-1.48-1.57,1.54,1.54,0,0,1,2.38-1.38Z"/><path class="cls-1" d="M67.67,46.13h.91a1.56,1.56,0,0,1,.86.15.86.86,0,0,1,.46.77.92.92,0,0,1-.33.73,1.13,1.13,0,0,1-.86.26h-.57v1.2h-.47Zm.47.4v1.12h.54a.64.64,0,0,0,.53-.16.53.53,0,0,0,.16-.39.51.51,0,0,0-.19-.44,1,1,0,0,0-.62-.13Z"/><path class="cls-1" d="M71.44,46.13h.47v1.26H73.3V46.13h.47v3.11H73.3V47.79H71.91v1.45h-.47Z"/></svg>
