<svg id="Layer_1" data-name="Layer 1" xmlns="http://www.w3.org/2000/svg" viewBox="0 0 1920 1080"><defs><style>.cls-1{fill:none;stroke:#e6a926;stroke-miterlimit:10;stroke-width:10px;}.cls-2{fill:#0c0c0c;}</style></defs><title>splash</title><rect class="cls-1" x="135.87" y="107.2" width="1469.56" height="749.32"/><path class="cls-2" d="M1471.87,825.07h54.68v22.21h-54.68Z"/><path class="cls-2" d="M1543,758.43h27.34V891.71h45v22.21H1543Z"/><path class="cls-2" d="M1628.46,758.43h27.34V913.92h-27.34Z"/><path class="cls-2" d="M1674.19,877.05V795.3c0-24.88,14.66-39.09,41.51-39.09s41.51,14.21,41.51,39.09v81.75c0,24.88-14.67,39.09-41.51,39.09S1674.19,901.93,1674.19,877.05Zm55.68,1.55V793.75c0-11.11-5.47-15.33-14.17-15.33s-14.17,4.22-14.17,15.33V878.6c0,11.11,5.47,15.33,14.17,15.33S1729.87,889.71,1729.87,878.6Z"/><path class="cls-2" d="M1410.72,581.19h72.34v22.22h-45v43.31h35.29v22.22h-35.29v67.75h-27.35Z"/><path class="cls-2" d="M1494.24,699.81V618.07c0-24.88,14.66-39.1,41.51-39.1s41.51,14.22,41.51,39.1v81.74c0,24.88-14.67,39.1-41.51,39.1S1494.24,724.69,1494.24,699.81Zm55.68,1.56V616.51c0-11.11-5.47-15.33-14.17-15.33s-14.17,4.22-14.17,15.33v84.86c0,11.1,5.47,15.33,14.17,15.33S1549.92,712.47,1549.92,701.37Z"/><path class="cls-2" d="M92.31,206.43h40.27c27.34,0,40.76,13.55,40.76,38.43v15.33c0,24.88-13.42,38.43-40.76,38.43H119.65v63.31H92.31Zm40.27,70c8.69,0,13.42-3.56,13.42-14.66V243.31c0-11.11-4.73-14.66-13.42-14.66H119.65v47.76Z"/><path class="cls-2" d="M186.26,325.05V243.31c0-24.88,14.67-39.1,41.51-39.1s41.51,14.22,41.51,39.1v81.74c0,24.88-14.66,39.1-41.51,39.1S186.26,349.93,186.26,325.05Zm55.68,1.56V241.75c0-11.1-5.47-15.32-14.17-15.32s-14.17,4.22-14.17,15.32v84.86c0,11.11,5.47,15.33,14.17,15.33S241.94,337.72,241.94,326.61Z"/><path class="cls-2" d="M287.67,206.43h40.52c28.33,0,40.51,11.78,40.51,35.77v9.55c0,16-5.71,26.21-17.89,30.65v.45c13.67,3.77,18.14,15.33,18.14,32.87v27.33c0,7.55.25,13.1,3,18.88H344.09c-1.49-4-2.48-6.44-2.48-19.1V314.39c0-14.44-4.72-19.1-17.15-19.1H315v66.64H287.67ZM325,273.07c10.2,0,16.41-4,16.41-16.43v-12c0-11.11-4.23-16-13.92-16H315v44.42Z"/><path class="cls-2" d="M408.72,228.65H380.13V206.43h84.52v22.22H436.06V361.93H408.72Z"/><path class="cls-2" d="M455.7,273.07h54.68v22.22H455.7Z"/></svg>
